<svg width="1280" height="360" viewBox="0 0 1280 360" fill="none" xmlns="http://www.w3.org/2000/svg" role="img" aria-labelledby="title desc">
  <title id="title">WebAtelier Canvas — Local-first Visual Web Design AI Editor</title>
  <desc id="desc">A dark editorial banner with soft cyan, lavender and sand gradients, showing the WebAtelier Canvas product name and feature keywords.</desc>
  <defs>
    <radialGradient id="g1" cx="0" cy="0" r="1" gradientUnits="userSpaceOnUse" gradientTransform="translate(1040 74) rotate(145) scale(580 350)">
      <stop stop-color="#43DDCE" stop-opacity="0.65"/>
      <stop offset="0.45" stop-color="#61B8FF" stop-opacity="0.22"/>
      <stop offset="1" stop-color="#07111F" stop-opacity="0"/>
    </radialGradient>
    <radialGradient id="g2" cx="0" cy="0" r="1" gradientUnits="userSpaceOnUse" gradientTransform="translate(170 305) rotate(-24) scale(560 310)">
      <stop stop-color="#D6B77C" stop-opacity="0.45"/>
      <stop offset="0.45" stop-color="#8F7CFF" stop-opacity="0.22"/>
      <stop offset="1" stop-color="#07111F" stop-opacity="0"/>
    </radialGradient>
    <linearGradient id="line" x1="105" y1="87" x2="1176" y2="275" gradientUnits="userSpaceOnUse">
      <stop stop-color="#43DDCE"/>
      <stop offset="0.48" stop-color="#8F7CFF"/>
      <stop offset="1" stop-color="#D6B77C"/>
    </linearGradient>
    <filter id="blur" x="-80" y="-80" width="1440" height="520" filterUnits="userSpaceOnUse" color-interpolation-filters="sRGB">
      <feGaussianBlur stdDeviation="34"/>
    </filter>
  </defs>
  <rect width="1280" height="360" rx="32" fill="#07111F"/>
  <rect x="1" y="1" width="1278" height="358" rx="31" stroke="#203247" stroke-opacity="0.9"/>
  <g filter="url(#blur)">
    <ellipse cx="1045" cy="80" rx="360" ry="175" fill="url(#g1)"/>
    <ellipse cx="195" cy="302" rx="360" ry="165" fill="url(#g2)"/>
  </g>
  <path d="M82 276 C274 132 415 340 609 193 C775 67 888 159 1054 93 C1125 65 1169 62 1212 72" stroke="url(#line)" stroke-width="3" stroke-linecap="round" opacity="0.78"/>
  <g opacity="0.28">
    <path d="M95 64H1185" stroke="#91A5BD" stroke-opacity="0.24"/>
    <path d="M95 119H1185" stroke="#91A5BD" stroke-opacity="0.16"/>
    <path d="M95 174H1185" stroke="#91A5BD" stroke-opacity="0.12"/>
    <path d="M95 229H1185" stroke="#91A5BD" stroke-opacity="0.16"/>
    <path d="M95 284H1185" stroke="#91A5BD" stroke-opacity="0.24"/>
    <path d="M180 42V318" stroke="#91A5BD" stroke-opacity="0.14"/>
    <path d="M360 42V318" stroke="#91A5BD" stroke-opacity="0.1"/>
    <path d="M540 42V318" stroke="#91A5BD" stroke-opacity="0.14"/>
    <path d="M720 42V318" stroke="#91A5BD" stroke-opacity="0.1"/>
    <path d="M900 42V318" stroke="#91A5BD" stroke-opacity="0.14"/>
    <path d="M1080 42V318" stroke="#91A5BD" stroke-opacity="0.1"/>
  </g>
  <g transform="translate(88 72)">
    <rect x="0" y="0" width="178" height="34" rx="17" fill="#43DDCE" fill-opacity="0.12" stroke="#43DDCE" stroke-opacity="0.42"/>
    <text x="20" y="22" fill="#43DDCE" font-family="Inter, Segoe UI, Arial, sans-serif" font-size="13" font-weight="700" letter-spacing="1.6">LOCAL-FIRST AI</text>
    <text x="0" y="100" fill="#F2F7FF" font-family="Inter, Segoe UI, Arial, sans-serif" font-size="54" font-weight="800" letter-spacing="-1.9">WebAtelier Canvas</text>
    <text x="2" y="139" fill="#B8C7D9" font-family="Inter, Segoe UI, Arial, sans-serif" font-size="20" font-weight="500">Visual web design editor powered by Python, Playwright, TypeScript overlays and local LLM workflows.</text>
    <g transform="translate(0 178)" font-family="Inter, Segoe UI, Arial, sans-serif" font-size="14" font-weight="700">
      <rect x="0" y="0" width="112" height="34" rx="17" fill="#EDF5FF" fill-opacity="0.07" stroke="#EDF5FF" stroke-opacity="0.14"/>
      <text x="18" y="22" fill="#EDF5FF">Selection</text>
      <rect x="124" y="0" width="104" height="34" rx="17" fill="#EDF5FF" fill-opacity="0.07" stroke="#EDF5FF" stroke-opacity="0.14"/>
      <text x="144" y="22" fill="#EDF5FF">CSS Lab</text>
      <rect x="240" y="0" width="90" height="34" rx="17" fill="#EDF5FF" fill-opacity="0.07" stroke="#EDF5FF" stroke-opacity="0.14"/>
      <text x="263" y="22" fill="#EDF5FF">JS Hub</text>
      <rect x="342" y="0" width="100" height="34" rx="17" fill="#EDF5FF" fill-opacity="0.07" stroke="#EDF5FF" stroke-opacity="0.14"/>
      <text x="366" y="22" fill="#EDF5FF">Export</text>
      <rect x="454" y="0" width="150" height="34" rx="17" fill="#EDF5FF" fill-opacity="0.07" stroke="#EDF5FF" stroke-opacity="0.14"/>
      <text x="478" y="22" fill="#EDF5FF">Local Projects</text>
    </g>
  </g>
  <g transform="translate(926 95)">
    <rect width="234" height="156" rx="18" fill="#0B1728" fill-opacity="0.92" stroke="#61B8FF" stroke-opacity="0.28"/>
    <rect x="18" y="21" width="92" height="10" rx="5" fill="#43DDCE" fill-opacity="0.9"/>
    <rect x="18" y="47" width="174" height="8" rx="4" fill="#EDF5FF" fill-opacity="0.36"/>
    <rect x="18" y="69" width="142" height="8" rx="4" fill="#EDF5FF" fill-opacity="0.22"/>
    <rect x="18" y="96" width="196" height="36" rx="10" fill="#61B8FF" fill-opacity="0.12" stroke="#61B8FF" stroke-opacity="0.24"/>
    <circle cx="196" cy="26" r="8" fill="#D6B77C"/>
  </g>
</svg>
